<svg width="85" height="46" viewBox="0 0 85 46" fill="none" xmlns="http://www.w3.org/2000/svg">
<g clip-path="url(#clip0_50_16)">
<path d="M9.12537 40.1652V40.771H7.49865V45.9486H6.76589V40.771H5.12939V40.1652H9.12537ZM19.9067 45.9486L18.4045 43.5867H17.5863V45.9486H16.8535V40.1652H18.7489C19.4003 40.1652 19.8888 40.3238 20.2145 40.641C20.3787 40.8024 20.5071 40.9969 20.5913 41.2116C20.6754 41.4263 20.7135 41.6564 20.703 41.887C20.7229 42.3038 20.5821 42.7123 20.3097 43.0275C20.0051 43.3337 19.6032 43.5229 19.1739 43.5621L20.7616 45.9486H19.9067ZM17.5863 43.0446H18.6732C19.5183 43.0446 19.9409 42.6726 19.9409 41.9287C19.9409 41.1847 19.5183 40.8127 18.6732 40.8127H17.5863V43.0446ZM31.9703 44.6119H29.4448L28.9563 45.9486H28.1551L30.2874 40.2706H31.1301L33.2551 45.9486H32.454L31.9703 44.6119ZM31.7578 44.0306L30.7027 41.1095L29.6499 44.0306H31.7578ZM44.2514 40.1652V40.771H41.7429V42.7748H43.8752V43.3561H41.7429V45.9486H41.0101V40.1652H44.2514ZM55.382 40.1652V40.771H52.8711V42.7748H55.0034V43.3561H52.8711V45.9486H52.1383V40.1652H55.382ZM63.9919 40.1652V45.9486H63.2591V40.1652H63.9919ZM74.7244 40.1063C75.3472 40.0819 75.9603 40.2676 76.4659 40.6336C76.9301 40.9872 77.2636 41.486 77.4136 42.0513H76.6296C76.4912 41.6819 76.2431 41.3642 75.9188 41.1413C75.5641 40.9026 75.1438 40.7816 74.717 40.7955C74.3596 40.7905 74.0081 40.8874 73.7034 41.0751C73.4008 41.2671 73.1573 41.5396 73 41.8624C72.8267 42.2377 72.7431 42.6484 72.7557 43.0618C72.7436 43.472 72.8273 43.8794 73 44.2513C73.1601 44.5722 73.403 44.8441 73.7034 45.0387C74.0097 45.2219 74.3606 45.3162 74.717 45.3109C75.1428 45.3248 75.5624 45.2066 75.9188 44.9724C76.2425 44.7458 76.4903 44.426 76.6296 44.0551H77.4283C77.2766 44.6223 76.9436 45.1239 76.4806 45.4826C75.9723 45.8423 75.3604 46.0242 74.739 46.0001C74.238 46.0095 73.744 45.8815 73.3102 45.6298C72.8943 45.3803 72.5559 45.0193 72.3331 44.5874C72.1064 44.1093 71.9887 43.5864 71.9887 43.0569C71.9887 42.5274 72.1064 42.0045 72.3331 41.5264C72.5532 41.0925 72.8922 40.7308 73.3102 40.484C73.7431 40.2273 74.2387 40.0965 74.7415 40.1063H74.7244Z" fill="white"/>
<path d="M34.2931 23.894V4.51785C34.2931 4.15485 34.3908 3.9709 34.5911 3.9709H37.8397C38.3385 3.95414 38.8349 4.04811 39.2934 4.24609C39.7519 4.44408 40.1613 4.74121 40.4923 5.1163C41.1697 5.8799 41.6981 7.29101 42.0775 9.34963C42.4569 11.4082 42.6556 14.2051 42.6735 17.7402C42.6735 18.9813 42.6547 20.1259 42.6173 21.174C44.2424 20.8864 45.8868 20.7224 47.5365 20.6835C47.5675 19.7269 47.583 18.7148 47.583 17.647C47.583 14.3261 47.3762 11.5121 46.9626 9.20492C46.549 6.89777 45.9456 5.07216 45.1526 3.72809C44.3385 2.39874 43.3965 1.44383 42.3266 0.863358C41.1633 0.260135 39.8666 -0.0369092 38.5578 1.4727e-05H30.0285C29.9394 -0.00811333 29.8496 0.00573566 29.767 0.0403583C29.6845 0.0749809 29.6115 0.12933 29.5546 0.198682C29.4545 0.31641 29.4056 0.5813 29.4056 0.995803V25.2209C31.0767 24.9524 32.715 24.5077 34.2931 23.894Z" fill="white"/>
<path d="M23.6926 25.5742V1.17001C23.702 0.908693 23.6681 0.647618 23.5924 0.397419C23.5355 0.215921 23.4654 0.108003 23.3824 0.0736658C23.2834 0.0207607 23.1721 -0.00464046 23.06 8.54411e-05H19.4157C19.3225 -0.0042557 19.2296 0.0137183 19.1447 0.0525249C19.0597 0.0913315 18.9852 0.149859 18.9272 0.223279C18.7995 0.521377 18.7483 0.846889 18.7782 1.17001V25.1253C20.4012 25.4107 22.045 25.5608 23.6926 25.5742Z" fill="white"/>
<path d="M57.0478 21.6694L59.5978 4.88083C59.6125 4.78027 59.6466 4.73122 59.6955 4.73122C59.7443 4.73122 59.7541 4.79008 59.7712 4.90536L62.1478 23.4991C63.7678 24.1814 65.4495 24.7055 67.1696 25.0639L63.2054 1.24596C63.08 0.449658 62.782 0.0343375 62.3114 0H57.2774C56.7987 0.0343375 56.4933 0.449658 56.3614 1.24596L53.0372 20.9066C54.3914 21.0585 55.7321 21.3135 57.0478 21.6694Z" fill="white"/>
<path d="M0.271982 3.98141C0.394707 4.00117 0.519001 4.00938 0.643246 4.00594H4.95675C5.13994 4.00594 5.23031 4.21442 5.23031 4.62892V21.0251C6.90159 21.2681 8.54567 21.6722 10.1398 22.2318V4.62892C10.1398 4.21442 10.2302 4.00594 10.4134 4.00594H14.6536C14.7381 4.01618 14.8237 4.00836 14.905 3.98299C14.9862 3.95763 15.0612 3.9153 15.125 3.85878C15.2227 3.74105 15.2715 3.47616 15.2715 3.06166V1.09951C15.3015 0.800537 15.2508 0.498981 15.125 0.226361C15.0731 0.150276 15.0023 0.0891749 14.9196 0.0491514C14.8369 0.009128 14.7452 -0.00841862 14.6536 -0.00173823H0.643246C0.549637 -0.00933551 0.455645 0.00717487 0.370162 0.0462309C0.28468 0.0852869 0.210535 0.145597 0.15474 0.221456C0.0472692 0.356353 -0.00158135 0.645769 -0.00158135 1.09461V3.05675C-0.0101385 3.28316 0.0145516 3.5096 0.0716945 3.72879C0.111483 3.83139 0.181317 3.91948 0.271982 3.98141Z" fill="white"/>
<path d="M73.0854 25.5791C74.5905 25.5885 76.0945 25.4951 77.587 25.2995V1.17002C77.587 0.679479 77.5357 0.358178 77.438 0.223281C77.3855 0.148098 77.3145 0.0879613 77.2318 0.0488165C77.1491 0.00967168 77.0577 -0.00712507 76.9665 8.71487e-05H73.3223C73.2312 -0.00737358 73.1396 0.00931214 73.0569 0.0484777C72.9742 0.0876433 72.9032 0.147918 72.8509 0.223281C72.7508 0.358178 72.7019 0.672121 72.7019 1.17002V25.5766L73.0854 25.5791Z" fill="white"/>
<path d="M84.3796 31.8457H77.9338C77.7018 31.8457 77.587 31.6642 77.587 31.2987V28.515C76.0927 28.6873 74.5895 28.7692 73.0854 28.7602H72.7019V34.6295C72.7019 35.12 72.7508 35.4511 72.8509 35.6106C72.9076 35.6795 72.9801 35.7337 73.0622 35.7683C73.1443 35.8029 73.2336 35.8169 73.3223 35.8092H84.3796C84.4661 35.8169 84.5533 35.8053 84.6348 35.7752C84.7163 35.7451 84.7901 35.6972 84.851 35.6351C84.977 35.3808 85.0286 35.096 85 34.8134V32.817C85 32.4025 84.9512 32.1376 84.851 32.0198C84.7901 31.9577 84.7163 31.9098 84.6348 31.8797C84.5533 31.8496 84.4661 31.838 84.3796 31.8457Z" fill="#3BB9FF"/>
<path d="M42.4171 24.4583C42.3438 25.2236 42.2558 25.9103 42.1533 26.5186C41.8276 28.5428 41.3155 29.9327 40.6169 30.6881C39.9208 31.4509 38.9389 31.8335 37.6639 31.8335H34.6156C34.4007 31.8335 34.2932 31.652 34.2932 31.2866V27.2813C32.7052 27.8234 31.0695 28.2127 29.4081 28.4439V34.7105C29.4081 35.1741 29.457 35.4733 29.5571 35.6057C29.6138 35.6747 29.6863 35.7289 29.7684 35.7635C29.8506 35.7981 29.9398 35.8121 30.0285 35.8044H37.8886C38.733 35.813 39.5772 35.7712 40.4166 35.6793C41.1469 35.5717 41.8624 35.3799 42.5489 35.1078C43.2348 34.8529 43.8537 34.4444 44.3589 33.9134C44.9118 33.2715 45.379 32.5599 45.7487 31.7967C46.2382 30.7627 46.5802 29.6645 46.7648 28.5347C47.0445 27.0027 47.2435 25.457 47.3607 23.904V23.8868C45.6992 23.929 44.0447 24.1203 42.4171 24.4583Z" fill="#3BB9FF"/>
<path d="M68.7108 34.5093C68.6972 34.4191 68.6882 34.3282 68.6839 34.2371L67.7069 28.3948C64.5732 27.9189 62.414 27.0507 60.3061 26.2021C58.054 25.2946 55.8973 24.4263 52.49 24.0535L50.768 34.2371C50.7461 34.3765 50.7379 34.5178 50.7436 34.6589V35.0734C50.7436 35.564 50.8657 35.7945 51.1148 35.7945H54.2901C54.3751 35.8005 54.4603 35.7855 54.5382 35.7509C54.6161 35.7162 54.6844 35.663 54.7371 35.5958C54.8716 35.332 54.9545 35.0448 54.9813 34.7497L56.039 28.4512C56.1049 28.071 56.1953 27.8797 56.3125 27.8797H62.3114C62.4433 27.8797 62.5361 28.0612 62.5849 28.4267L63.5058 34.784C63.6198 35.4642 63.8754 35.8043 64.2727 35.8043H68.364C68.6449 35.8043 68.7865 35.5713 68.7865 35.1078C68.785 35.0255 68.7768 34.9434 68.7621 34.8625C68.7587 34.7432 68.7415 34.6246 68.7108 34.5093Z" fill="#3BB9FF"/>
<path d="M5.23195 24.2547V34.6099C5.20311 34.9442 5.25419 35.2805 5.38095 35.591C5.43734 35.664 5.51067 35.7221 5.59454 35.7601C5.67841 35.7982 5.77027 35.815 5.86212 35.8093H9.49661C9.58773 35.8165 9.67915 35.7997 9.76183 35.7605C9.84451 35.7214 9.91558 35.6612 9.96801 35.5861C10.0828 35.4364 10.1414 35.1127 10.1414 34.605V25.6282C8.55698 25.0001 6.91157 24.5398 5.23195 24.2547Z" fill="#3BB9FF"/>
<path d="M18.7709 28.3629V34.6344C18.7635 34.894 18.7882 35.1535 18.8442 35.407C18.8799 35.5444 18.9587 35.6665 19.0689 35.7553C19.1807 35.7921 19.2982 35.8087 19.4158 35.8043H23.06C23.1511 35.8116 23.2426 35.7948 23.3252 35.7556C23.4079 35.7165 23.479 35.6563 23.5314 35.5812C23.6592 35.2831 23.7104 34.9575 23.6804 34.6344V28.7627C22.0365 28.7473 20.3958 28.6137 18.7709 28.3629Z" fill="#3BB9FF"/>
</g>
<defs>
<clipPath id="clip0_50_16">
<rect width="85" height="46" fill="white"/>
</clipPath>
</defs>
</svg>
